
        <svg xmlns="http://www.w3.org/2000/svg" xmlns:xlink="http://www.w3.org/1999/xlink" version="1.1" width="3162.0162016201625" 
        height="945.0945094509452" viewBox="0 0 3162.0162016201625 945.0945094509452">
			
			<g transform="scale(8.1008100810081) translate(10, 10)">
				<defs id="SvgjsDefs7527"><linearGradient id="SvgjsLinearGradient7532"><stop id="SvgjsStop7533" stop-color="#2d388a" offset="0"></stop><stop id="SvgjsStop7534" stop-color="#00aeef" offset="1"></stop></linearGradient></defs><g id="SvgjsG7528" featureKey="pxMwYC-0" transform="matrix(1.2393162393162394,0,0,1.2393162393162394,301.7735042735043,-444.2948717948718)" fill="url(#SvgjsLinearGradient7532)"><path xmlns="http://www.w3.org/2000/svg" d="M-167.5,390.5c-1.1,0-2-0.9-2-2c0-1.1,0.9-2,2-2c1.1,0,2,0.9,2,2C-165.5,389.6-166.4,390.5-167.5,390.5z   M-177.5,428.5c-2.2,0-4-1.8-4-4s1.8-4,4-4c2.2,0,4,1.8,4,4S-175.3,428.5-177.5,428.5z M-177.5,410.5c-2.2,0-4-1.8-4-4s1.8-4,4-4  c2.2,0,4,1.8,4,4S-175.3,410.5-177.5,410.5z M-177.5,392.5c-2.2,0-4-1.8-4-4c0-2.2,1.8-4,4-4c2.2,0,4,1.8,4,4  C-173.5,390.7-175.3,392.5-177.5,392.5z M-177.5,374.5c-2.2,0-4-1.8-4-4c0-2.2,1.8-4,4-4c2.2,0,4,1.8,4,4  C-173.5,372.7-175.3,374.5-177.5,374.5z M-194.5,414.5c-3.9,0-7-3.1-7-7c0-3.9,3.1-7,7-7c3.9,0,7,3.1,7,7  C-187.5,411.4-190.6,414.5-194.5,414.5z M-194.5,394.5c-3.9,0-7-3.1-7-7c0-3.9,3.1-7,7-7c3.9,0,7,3.1,7,7  C-187.5,391.4-190.6,394.5-194.5,394.5z M-195.5,374.5c-2.2,0-4-1.8-4-4c0-2.2,1.8-4,4-4c2.2,0,4,1.8,4,4  C-191.5,372.7-193.3,374.5-195.5,374.5z M-195.5,362.5c-1.1,0-2-0.9-2-2c0-1.1,0.9-2,2-2c1.1,0,2,0.9,2,2  C-193.5,361.6-194.4,362.5-195.5,362.5z M-214.5,414.5c-3.9,0-7-3.1-7-7c0-3.9,3.1-7,7-7s7,3.1,7,7  C-207.5,411.4-210.6,414.5-214.5,414.5z M-214.5,394.5c-3.9,0-7-3.1-7-7c0-3.9,3.1-7,7-7s7,3.1,7,7  C-207.5,391.4-210.6,394.5-214.5,394.5z M-213.5,374.5c-2.2,0-4-1.8-4-4c0-2.2,1.8-4,4-4c2.2,0,4,1.8,4,4  C-209.5,372.7-211.3,374.5-213.5,374.5z M-213.5,362.5c-1.1,0-2-0.9-2-2c0-1.1,0.9-2,2-2c1.1,0,2,0.9,2,2  C-211.5,361.6-212.4,362.5-213.5,362.5z M-231.5,374.5c-2.2,0-4-1.8-4-4c0-2.2,1.8-4,4-4c2.2,0,4,1.8,4,4  C-227.5,372.7-229.3,374.5-231.5,374.5z M-231.5,384.5c2.2,0,4,1.8,4,4c0,2.2-1.8,4-4,4c-2.2,0-4-1.8-4-4  C-235.5,386.3-233.7,384.5-231.5,384.5z M-241.5,408.5c-1.1,0-2-0.9-2-2c0-1.1,0.9-2,2-2c1.1,0,2,0.9,2,2  C-239.5,407.6-240.4,408.5-241.5,408.5z M-241.5,390.5c-1.1,0-2-0.9-2-2c0-1.1,0.9-2,2-2c1.1,0,2,0.9,2,2  C-239.5,389.6-240.4,390.5-241.5,390.5z M-231.5,402.5c2.2,0,4,1.8,4,4s-1.8,4-4,4c-2.2,0-4-1.8-4-4S-233.7,402.5-231.5,402.5z   M-231.5,420.5c2.2,0,4,1.8,4,4s-1.8,4-4,4c-2.2,0-4-1.8-4-4S-233.7,420.5-231.5,420.5z M-213.5,420.5c2.2,0,4,1.8,4,4  c0,2.2-1.8,4-4,4c-2.2,0-4-1.8-4-4C-217.5,422.3-215.7,420.5-213.5,420.5z M-213.5,432.5c1.1,0,2,0.9,2,2c0,1.1-0.9,2-2,2  c-1.1,0-2-0.9-2-2C-215.5,433.4-214.6,432.5-213.5,432.5z M-195.5,420.5c2.2,0,4,1.8,4,4c0,2.2-1.8,4-4,4c-2.2,0-4-1.8-4-4  C-199.5,422.3-197.7,420.5-195.5,420.5z M-195.5,432.5c1.1,0,2,0.9,2,2c0,1.1-0.9,2-2,2c-1.1,0-2-0.9-2-2  C-197.5,433.4-196.6,432.5-195.5,432.5z M-167.5,404.5c1.1,0,2,0.9,2,2c0,1.1-0.9,2-2,2c-1.1,0-2-0.9-2-2  C-169.5,405.4-168.6,404.5-167.5,404.5z" style="fill-rule: evenodd; clip-rule: evenodd;"></path></g><g id="SvgjsG7529" featureKey="Vx5QiU-0" transform="matrix(4.266307047857123,0,0,4.266307047857123,111.8804364249724,-1.5054545412496072)" fill="#0e66a1"><path d="M18.3 20 l-2.86 0 l0 -6.9 q0 -1.22 -0.59 -1.85 t-1.45 -0.63 q-0.66 0 -1.25 0.21 t-1.15 0.69 q0.18 0.7 0.18 1.58 l0 6.9 l-2.88 0 l0 -6.9 q0 -1.22 -0.59 -1.85 t-1.43 -0.63 q-0.66 0 -1.16 0.23 t-1.04 0.73 l0 8.42 l-2.88 0 l0 -11.56 l2.88 0 l0 0.86 q0.54 -0.52 1.27 -0.84 t1.49 -0.32 q0.84 0 1.69 0.38 t1.49 1.1 q0.9 -0.8 1.82 -1.14 t2.02 -0.34 q0.9 0 1.71 0.27 t1.41 0.86 t0.96 1.5 t0.36 2.19 l0 7.04 z M23.5 6.42 l-3 0 l0 -3 l3 0 l0 3 z M23.46 20 l-2.92 0 l0 -11.58 l2.92 0 l0 11.58 z M29.1 6.42 l-3 0 l0 -3 l3 0 l0 3 z M29.060000000000002 20 l-2.92 0 l0 -11.58 l2.92 0 l0 11.58 z M40.160000000000004 16.759999999999998 q0 0.86 -0.4 1.53 t-1.04 1.12 t-1.44 0.68 t-1.58 0.23 q-1.32 0 -2.43 -0.49 t-1.95 -1.57 l1.74 -1.76 q0.52 0.66 1.2 1.03 t1.46 0.37 q0.68 0 1.13 -0.25 t0.45 -0.75 q0 -0.52 -0.64 -0.87 t-1.8 -0.69 q-0.68 -0.2 -1.32 -0.51 t-1.14 -0.76 t-0.8 -1.03 t-0.3 -1.34 q0 -0.84 0.39 -1.51 t1.02 -1.12 t1.43 -0.69 t1.62 -0.24 q2.64 0 4.32 2 l-1.72 1.74 q-0.5 -0.62 -1.14 -0.98 t-1.4 -0.36 q-0.26 0 -0.55 0.07 t-0.54 0.2 t-0.41 0.34 t-0.16 0.47 q0 0.46 0.61 0.8 t1.75 0.68 q0.74 0.22 1.4 0.56 t1.16 0.79 t0.79 1.02 t0.29 1.29 z M53.900000000000006 14.219999999999999 q0 1.3 -0.48 2.41 t-1.32 1.92 t-1.97 1.28 t-2.41 0.47 t-2.4 -0.47 t-1.96 -1.29 t-1.32 -1.93 t-0.48 -2.39 q0 -1.26 0.49 -2.37 t1.33 -1.94 t1.96 -1.3 t2.38 -0.47 q1.28 0 2.41 0.47 t1.97 1.28 t1.32 1.93 t0.48 2.4 z M51.02 14.219999999999999 q0 -0.74 -0.26 -1.38 t-0.71 -1.12 t-1.05 -0.75 t-1.28 -0.27 t-1.28 0.27 t-1.05 0.75 t-0.71 1.12 t-0.26 1.38 t0.26 1.38 t0.71 1.12 t1.05 0.75 t1.28 0.27 t1.28 -0.27 t1.05 -0.75 t0.71 -1.12 t0.26 -1.38 z M60.580000000000005 19.94 q-0.34 0.16 -0.77 0.26 t-0.89 0.1 q-0.64 0 -1.23 -0.17 t-1.03 -0.55 t-0.7 -0.99 t-0.26 -1.47 l0 -13.72 l2.94 0 l0 13.22 q0 0.72 0.29 0.99 t0.69 0.27 q0.5 0 0.96 -0.3 l0 2.36 z"></path></g>
			</g>
		</svg>
	