<svg xmlns="http://www.w3.org/2000/svg" viewBox="0 0 64 64" width="64" height="64">
  <defs>
    <linearGradient id="faviconDotsGradient" x1="0%" y1="0%" x2="100%" y2="100%">
      <stop offset="0%" style="stop-color:#2d388a;stop-opacity:1" />
      <stop offset="100%" style="stop-color:#00aeef;stop-opacity:1" />
    </linearGradient>
  </defs>
  
  <!-- White background rounded square with subtle border -->
  <rect width="64" height="64" rx="12" fill="white" stroke="#e5e7eb" stroke-width="1" />
  
  <!-- Miisol dots pattern in blue gradient using squares/rounded rectangles -->
  <g fill="url(#faviconDotsGradient)">
    <!-- Top row dots -->
    <rect x="17.5" y="17.5" width="5" height="5" rx="1" />
    <rect x="30" y="16" width="4" height="4" rx="1" />
    <rect x="41.5" y="17.5" width="5" height="5" rx="1" />
    
    <!-- Middle row dots -->
    <rect x="13" y="29" width="6" height="6" rx="1.5" />
    <rect x="28" y="28" width="8" height="8" rx="2" />
    <rect x="45" y="29" width="6" height="6" rx="1.5" />
    
    <!-- Bottom row dots -->
    <rect x="17.5" y="41.5" width="5" height="5" rx="1" />
    <rect x="30" y="44" width="4" height="4" rx="1" />
    <rect x="41.5" y="41.5" width="5" height="5" rx="1" />
    
    <!-- Additional accent dots -->
    <rect x="23" y="23" width="3" height="3" rx="0.5" />
    <rect x="35" y="23" width="3" height="3" rx="0.5" />
    <rect x="23" y="35" width="3" height="3" rx="0.5" />
    <rect x="35" y="35" width="3" height="3" rx="0.5" />
  </g>
</svg>
